# xmcd
#
# Track frame offsets:
#	182
#	14627
#	30362
#	47000
#	60932
#	77110
#	93615
#	113470
#	129190
#	143235
#
# Disc length: 2102 seconds
#
# Revision: 4
# Processed by: cddbd v1.5.2PL0 Copyright (c) Steve Scherf et al.
# Submitted via: dBpowerAMP V4.0
#
DISCID=7408340a
DTITLE=Moe Bandy - Greatest Hits
DYEAR=1990
DGENRE=Country
TTITLE0=Till I'm Too Old to Die Young
TTITLE1=Back in my Roarin' 20's
TTITLE2=You Haven't Heard The Last of Me
TTITLE3=One Man Band
TTITLE4=Many Mansions
TTITLE5=Pardon me (Haven't we Loved Somewhere Before) - With Becky Hobbs
TTITLE6=Americana
TTITLE7=She Has no Memory of Me
TTITLE8=Brotherly Love
TTITLE9=I Just Can't Say no to You
EXTD=
EXTT0=
EXTT1=
EXTT2=
EXTT3=
EXTT4=
EXTT5=
EXTT6=
EXTT7=
EXTT8=
EXTT9=
PLAYORDER=
